<?xml version="1.0" standalone="no"?><!DOCTYPE svg PUBLIC "-//W3C//DTD SVG 1.1//EN" "http://www.w3.org/Graphics/SVG/1.1/DTD/svg11.dtd"><svg t="1748232992726" class="icon" viewBox="0 0 1024 1024" version="1.1" xmlns="http://www.w3.org/2000/svg" p-id="9225" xmlns:xlink="http://www.w3.org/1999/xlink" width="200" height="200"><path d="M931.38 392.53l-367.87-278c-29.31-22.12-73.52-22.12-102.81 0l-367.88 278a32 32 0 0 0 38.56 51.06L160 422v410a64.07 64.07 0 0 0 64 64h576a64.08 64.08 0 0 0 64-64V421.81l28.81 21.78a32 32 0 0 0 38.56-51.06zM448 832V608a32 32 0 0 1 32-32h64a32 32 0 0 1 32 32v224z m352-448v448H640V608a96.1 96.1 0 0 0-96-96h-64a96.1 96.1 0 0 0-96 96v224H224V384a30.86 30.86 0 0 0-1.83-9l277.09-209.4c6.24-4.68 19.43-4.68 25.66 0l276.93 209.26A31 31 0 0 0 800 384z" fill="#13227a" p-id="9226"></path></svg>